<svg fill="none" height="599" viewBox="0 0 556 599" width="556" xmlns="http://www.w3.org/2000/svg" xmlns:xlink="http://www.w3.org/1999/xlink"><filter id="a" color-interpolation-filters="sRGB" filterUnits="userSpaceOnUse" height="179.042" width="169.786" x="300.757" y="141.002"><feFlood flood-opacity="0" result="BackgroundImageFix"/><feColorMatrix in="SourceAlpha" result="hardAlpha" type="matrix" values="0 0 0 0 0 0 0 0 0 0 0 0 0 0 0 0 0 0 127 0"/><feOffset dx="1.73" dy="1.73"/><feGaussianBlur stdDeviation="9.82"/><feColorMatrix type="matrix" values="0 0 0 0 1 0 0 0 0 1 0 0 0 0 1 0 0 0 0.36 0"/><feBlend in2="BackgroundImageFix" mode="normal" result="effect1_dropShadow_2910_1078"/><feBlend in="SourceGraphic" in2="effect1_dropShadow_2910_1078" mode="normal" result="shape"/></filter><filter id="b" color-interpolation-filters="sRGB" filterUnits="userSpaceOnUse" height="140.48" width="140.977" x="76.7759" y="274.635"><feFlood flood-opacity="0" result="BackgroundImageFix"/><feColorMatrix in="SourceAlpha" result="hardAlpha" type="matrix" values="0 0 0 0 0 0 0 0 0 0 0 0 0 0 0 0 0 0 127 0"/><feOffset dx="5.86" dy="5.02"/><feGaussianBlur stdDeviation="1.67"/><feColorMatrix type="matrix" values="0 0 0 0 0 0 0 0 0 0 0 0 0 0 0 0 0 0 0.36 0"/><feBlend in2="BackgroundImageFix" mode="normal" result="effect1_dropShadow_2910_1078"/><feBlend in="SourceGraphic" in2="effect1_dropShadow_2910_1078" mode="normal" result="shape"/></filter><linearGradient id="c" gradientUnits="userSpaceOnUse" x1="492.004" x2="463.303" y1="185.745" y2="196.729"><stop offset=".16" stop-color="#f95900"/><stop offset=".48" stop-color="#fb6000"/><stop offset="1" stop-color="#ff6801"/></linearGradient><linearGradient id="d" gradientUnits="userSpaceOnUse" x1="437.062" x2="416.551" y1="123.491" y2="158.18"><stop offset=".02" stop-color="#f95900"/><stop offset=".3" stop-color="#fb6909"/><stop offset=".7" stop-color="#fe7a13"/><stop offset="1" stop-color="#ff8017"/></linearGradient><linearGradient id="e" gradientUnits="userSpaceOnUse" x1="415.573" x2="357.934" y1="320.136" y2="129.137"><stop offset="0" stop-color="#ffa466"/><stop offset=".19" stop-color="#ffaf79"/><stop offset=".5" stop-color="#ffbf93"/><stop offset=".78" stop-color="#ffc9a4"/><stop offset="1" stop-color="#ffcdaa"/></linearGradient><linearGradient id="f"><stop offset=".02" stop-color="#f95900"/><stop offset=".32" stop-color="#fb6a0a"/><stop offset=".7" stop-color="#fe7a13"/><stop offset="1" stop-color="#ff8017"/></linearGradient><linearGradient id="g" gradientUnits="userSpaceOnUse" x1="384.016" x2="384.004" xlink:href="#f" y1="285.999" y2="147.212"/><linearGradient id="h" gradientUnits="userSpaceOnUse" x1="445.121" x2="417.088" xlink:href="#f" y1="102.038" y2="152.661"/><linearGradient id="i"><stop offset=".03" stop-color="#2f5472"/><stop offset="1" stop-color="#053256" stop-opacity="0"/></linearGradient><linearGradient id="j" gradientUnits="userSpaceOnUse" x1="221.027" x2="221.027" xlink:href="#i" y1="456.052" y2="472.184"/><linearGradient id="k" gradientUnits="userSpaceOnUse" x1="221.858" x2="221.858" y1="503.561" y2="476.732"><stop offset=".28" stop-color="#acbbc7"/><stop offset=".49" stop-color="#b1bfca"/><stop offset=".75" stop-color="#bfcbd4"/><stop offset="1" stop-color="#d5dde3"/></linearGradient><linearGradient id="l"><stop offset=".03" stop-color="#204056"/><stop offset="1" stop-color="#053256"/></linearGradient><linearGradient id="m" gradientUnits="userSpaceOnUse" x1="221.825" x2="221.825" xlink:href="#l" y1="497.494" y2="504.082"/><linearGradient id="n"><stop offset=".06" stop-color="#8e5df8"/><stop offset=".27" stop-color="#9263f8"/><stop offset=".55" stop-color="#9e74f9"/><stop offset=".87" stop-color="#b190fa"/><stop offset="1" stop-color="#bb9efb"/></linearGradient><linearGradient id="o" gradientUnits="userSpaceOnUse" x1="226.147" x2="226.147" xlink:href="#n" y1="210.374" y2="471.011"/><linearGradient id="p" gradientUnits="userSpaceOnUse" x1="315.315" x2="398.958" xlink:href="#l" y1="496.66" y2="496.66"/><linearGradient id="q" gradientUnits="userSpaceOnUse" x1="310.698" x2="397.699" y1="479.979" y2="479.979"><stop offset=".48" stop-color="#97afbf"/><stop offset=".6" stop-color="#9cb2c1"/><stop offset=".75" stop-color="#aabdca"/><stop offset=".91" stop-color="#c3cfd8"/><stop offset="1" stop-color="#d5dde3"/></linearGradient><linearGradient id="r" gradientUnits="userSpaceOnUse" x1="309.74" x2="309.74" xlink:href="#n" y1="211.735" y2="472.316"/><linearGradient id="s" gradientUnits="userSpaceOnUse" x1="320.387" x2="339.904" xlink:href="#i" y1="462.613" y2="482.084"/><linearGradient id="t"><stop offset=".03" stop-color="#2f5472"/><stop offset="1" stop-color="#053256"/></linearGradient><linearGradient id="u" gradientUnits="userSpaceOnUse" x1="249.953" x2="249.953" xlink:href="#t" y1="107.315" y2="240.132"/><linearGradient id="v" gradientUnits="userSpaceOnUse" x1="154.564" x2="154.564" xlink:href="#t" y1="113.168" y2="239.929"/><linearGradient id="w"><stop offset=".03" stop-color="#b27a42"/><stop offset=".48" stop-color="#b87d44"/><stop offset="1" stop-color="#c6854a"/></linearGradient><linearGradient id="x" gradientUnits="userSpaceOnUse" x1="231.766" x2="181.952" xlink:href="#w" y1="227.072" y2="227.072"/><linearGradient id="y"><stop offset="0" stop-color="#82552b"/><stop offset=".04" stop-color="#88592d"/><stop offset=".28" stop-color="#a36c3a"/><stop offset=".51" stop-color="#b67a42"/><stop offset=".75" stop-color="#c28248"/><stop offset="1" stop-color="#c6854a"/></linearGradient><linearGradient id="z" gradientUnits="userSpaceOnUse" x1="172.81" x2="187.407" xlink:href="#y" y1="224.088" y2="224.088"/><linearGradient id="A" gradientUnits="userSpaceOnUse" x1="296.429" x2="378.063" xlink:href="#t" y1="166.14" y2="166.14"/><linearGradient id="B" gradientUnits="userSpaceOnUse" x1="275.644" x2="326.312" xlink:href="#w" y1="218.323" y2="218.323"/><linearGradient id="C" gradientUnits="userSpaceOnUse" x1="331.247" x2="318.343" xlink:href="#y" y1="207.33" y2="212.458"/><linearGradient id="D" gradientUnits="userSpaceOnUse" x1="247.113" x2="247.113" y1="87.4532" y2="122.466"><stop offset=".03" stop-color="#b27a42"/><stop offset=".7" stop-color="#b37643"/><stop offset="1" stop-color="#b57245"/></linearGradient><linearGradient id="E" gradientUnits="userSpaceOnUse" x1="247.177" x2="246.99" y1="91.1642" y2="108.124"><stop offset=".03" stop-color="#b27a42"/><stop offset=".51" stop-color="#a26d3c"/><stop offset="1" stop-color="#8e5d35"/></linearGradient><linearGradient id="F" gradientUnits="userSpaceOnUse" x1="233.78" x2="263.994" y1="96.8001" y2="44.6038"><stop offset=".03" stop-color="#b27a42"/><stop offset=".36" stop-color="#b87e46"/><stop offset=".8" stop-color="#c98952"/><stop offset="1" stop-color="#d39059"/></linearGradient><linearGradient id="G"><stop offset=".03" stop-color="#b27a42" stop-opacity=".5"/><stop offset=".38" stop-color="#a7713e" stop-opacity=".65"/><stop offset="1" stop-color="#8e5d35"/></linearGradient><linearGradient id="H" gradientUnits="userSpaceOnUse" x1="227.067" x2="227.067" xlink:href="#G" y1="59.2749" y2="94.2001"/><linearGradient id="I"><stop offset=".03" stop-color="#ff8294"/><stop offset="1" stop-color="#aa3742"/></linearGradient><linearGradient id="J" gradientUnits="userSpaceOnUse" x1="-23.9027" x2="-23.6401" xlink:href="#I" y1="77.3379" y2="77.3379"/><linearGradient id="K" gradientUnits="userSpaceOnUse" x1="-23.9035" x2="-23.6409" xlink:href="#I" y1="78.1059" y2="78.1059"/><linearGradient id="L" gradientUnits="userSpaceOnUse" x1="268.709" x2="221.949" xlink:href="#G" y1="57.4264" y2="57.4304"/><linearGradient id="M" gradientUnits="userSpaceOnUse" x1="213.405" x2="227.22" xlink:href="#w" y1="76.8225" y2="76.8225"/><linearGradient id="N" gradientUnits="userSpaceOnUse" x1="221.898" x2="218.028" y1="80.7657" y2="73.3236"><stop offset=".03" stop-color="#b27a42"/><stop offset=".37" stop-color="#ae7740"/><stop offset=".67" stop-color="#a36e3c"/><stop offset=".95" stop-color="#916036"/><stop offset="1" stop-color="#8e5d35"/></linearGradient><linearGradient id="O" gradientUnits="userSpaceOnUse" x1="215.621" x2="220.917" xlink:href="#w" y1="79.4498" y2="79.4498"/><linearGradient id="P" gradientUnits="userSpaceOnUse" x1="247.403" x2="247.403" y1="79.9655" y2="32.627"><stop offset=".03" stop-color="#011c30"/><stop offset="1" stop-color="#053256"/></linearGradient><linearGradient id="Q" gradientUnits="userSpaceOnUse" x1="317.504" x2="248.592" y1="343.706" y2="311.656"><stop offset=".55" stop-color="#773cf7" stop-opacity="0"/><stop offset="1" stop-color="#773cf7"/></linearGradient><linearGradient id="R"><stop offset=".03" stop-color="#91542a"/><stop offset=".07" stop-color="#995c2f" stop-opacity=".81"/><stop offset=".12" stop-color="#a36635" stop-opacity=".6"/><stop offset=".19" stop-color="#ac6e3b" stop-opacity=".41"/><stop offset=".26" stop-color="#b3753f" stop-opacity=".26"/><stop offset=".34" stop-color="#b87a42" stop-opacity=".14"/><stop offset=".45" stop-color="#bc7e45" stop-opacity=".06"/><stop offset=".59" stop-color="#be8046" stop-opacity=".01"/><stop offset="1" stop-color="#bf8147" stop-opacity="0"/></linearGradient><linearGradient id="S" gradientUnits="userSpaceOnUse" x1="223.217" x2="216.069" xlink:href="#R" y1="224.298" y2="236.641"/><linearGradient id="T"><stop offset=".03" stop-color="#9b592d" stop-opacity=".99"/><stop offset=".08" stop-color="#a36233" stop-opacity=".76"/><stop offset=".13" stop-color="#aa6a38" stop-opacity=".56"/><stop offset=".2" stop-color="#b1713d" stop-opacity=".38"/><stop offset=".27" stop-color="#b67740" stop-opacity=".24"/><stop offset=".35" stop-color="#ba7b43" stop-opacity=".13"/><stop offset=".45" stop-color="#bc7e45" stop-opacity=".06"/><stop offset=".6" stop-color="#be8046" stop-opacity=".01"/><stop offset="1" stop-color="#bf8147" stop-opacity="0"/></linearGradient><linearGradient id="U" gradientUnits="userSpaceOnUse" x1="221.362" x2="214.213" xlink:href="#T" y1="230.664" y2="243.007"/><linearGradient id="V" gradientUnits="userSpaceOnUse" x1="217.945" x2="210.831" xlink:href="#T" y1="236.976" y2="249.263"/><linearGradient id="W" gradientUnits="userSpaceOnUse" x1="283.874" x2="293.383" xlink:href="#R" y1="218.074" y2="228.696"/><linearGradient id="X" gradientUnits="userSpaceOnUse" x1="293.363" x2="303.21" xlink:href="#T" y1="218.259" y2="229.262"/><linearGradient id="Y" gradientUnits="userSpaceOnUse" x1="291.373" x2="300.832" xlink:href="#T" y1="229.736" y2="240.31"/><linearGradient id="Z"><stop offset=".02" stop-color="#f95900"/><stop offset=".33" stop-color="#fa6004"/><stop offset=".79" stop-color="#fd7410"/><stop offset="1" stop-color="#ff8017"/></linearGradient><linearGradient id="aa" gradientUnits="userSpaceOnUse" x1="103.83" x2="158.787" xlink:href="#Z" y1="325.528" y2="325.528"/><linearGradient id="ab" gradientUnits="userSpaceOnUse" x1="100.132" x2="185.946" xlink:href="#Z" y1="340.695" y2="340.695"/><linearGradient id="ac" gradientUnits="userSpaceOnUse" x1="148.376" x2="186.291" xlink:href="#Z" y1="362.592" y2="362.592"/><mask id="ad" height="18" maskUnits="userSpaceOnUse" width="18" x="218" y="149"><path d="m235.667 149.196h-17.398v17.444h17.398z" fill="#fff"/></mask><mask id="ae" height="18" maskUnits="userSpaceOnUse" width="18" x="218" y="149"><path d="m235.667 149.196h-17.398v17.444h17.398z" fill="#fff"/></mask><path d="m470.589 200.025 18.178-6.996c2.9-1.116 4.349-4.378 3.236-7.286l-.002-.005c-1.114-2.907-4.367-4.359-7.267-3.243l-18.178 6.996c-2.9 1.116-4.348 4.378-3.235 7.285l.002.005c1.113 2.908 4.366 4.36 7.266 3.244z" fill="url(#c)"/><path d="m448.916 124.375-24.15-10.78-17.643 39.728 24.151 10.78z" fill="url(#d)"/><path d="m388.119 328.419c54.945 0 99.487-44.658 99.487-99.746s-44.542-99.745-99.487-99.745-99.486 44.657-99.486 99.745 44.541 99.746 99.486 99.746z" fill="url(#e)"/><g filter="url(#a)"><path d="m410.409 162.789c-32.745-11.525-68.734 3.395-84.419 34.771-17.672 35.359-2.189 78.77 33.855 94.842 33.237 14.821 71.321 2.622 88.462-28.688 1.942-3.549.503-7.811-3.19-9.457l-52.818-23.582c-2.33-1.042-3.386-3.806-2.352-6.143l23.903-53.811c1.395-3.149-.208-6.791-3.452-7.932z" fill="url(#g)"/></g><path d="m463.916 103.691-33.842-15.1064c-5.073-2.2647-11.018.0229-13.276 5.1097l-3.298 7.4267c-2.259 5.087.023 11.046 5.096 13.311l33.842 15.107c5.074 2.264 11.018-.023 13.277-5.11l3.298-7.426c2.259-5.087-.023-11.047-5.097-13.312z" fill="url(#h)"/><g clip-rule="evenodd" fill-rule="evenodd"><path d="m192.555 476.441c-1.586-.389-3.386-1.069-3.901-2.847-.24-.866-.142-1.788.268-2.583.569-1.136 1.499-2.046 2.643-2.595 3.042-1.415 6.434-.636 9.684-.954.651-.066 1.296-.17 1.931-.318 3.797-.856 7.381-2.968 11.052-4.526 8.02-3.45 16.933-4.24 25.429-2.249 2.156.494 4.246 1.251 6.221 2.249 2.839 1.492 5.34 3.73 5.81 7.032" fill="#001858"/><path d="m197.632 474.955 1.406-10.071 42.844-8.832 5.515 36.911-52.473 1.399z" fill="#778fa0"/><path d="m244.35 468.663c-.651.192-1.318.373-1.991.554-14.22 3.697-32.488 3.532-42.85 1.728-.629-.11-1.231-.231-1.8-.346l.706-5.035c.602 0 1.198.038 1.827.038 4.404.093 7.244-7.954 11.522-9.012 2.79-.719 6.724 2.38 9.263 1.618 2.002-.598 4.098-.571 5.936-1.152l2.708-.576.596 1.267 1.532.291c1.62-.51.236.554 1.718.115 2.457-.73 4.716-1.333 6.774-1.733.738-.149 1.455-.264 2.15-.357" fill="url(#j)"/><path d="m249.952 501.301c0 .757-.038 1.508-.12 2.26h-55.947c-.083-.752-.121-1.509-.121-2.26 0-13.582 12.578-24.574 28.094-24.574s28.094 11.003 28.094 24.574z" fill="url(#k)"/><path d="m248.989 504.082h-54.333c-.509 0-.919-1.475-.919-3.297 0-1.821.41-3.296.919-3.296h54.333c.509 0 .92 1.475.92 3.296 0 1.822-.411 3.297-.92 3.297z" fill="url(#m)"/><path d="m263.362 229.239-8.054 143.65s-3.145 84.035-3.611 96.772c-.465-3.302-2.97-5.54-5.81-7.032-.361-.192-.727-.367-1.094-.538l-.049-.021c-1.636-.719-3.332-1.284-5.072-1.69-2.642-.631-5.345-.987-8.059-1.07-.388 0-.777-.016-1.165-.016h-.515c-5.394.077-10.723 1.207-15.691 3.33-3.244 1.382-6.423 3.192-9.738 4.185l-.159.044c-.383.11-.766.208-1.154.296-.635.148-1.28.252-1.932.318-3.244.318-6.641-.461-9.683.955-1.144.548-2.074 1.459-2.643 2.594 1.62-14.454 14.706-260.636 14.706-260.636l6.013 20.361z" fill="url(#o)"/><path d="m216.562 461.713c-.448.159-.902.329-1.351.505.449-.176.897-.346 1.351-.505z" fill="#a1d5d3"/><path d="m220.704 460.468c-1.012.247-2.019.532-3.015.861 1.002-.329 2.003-.614 3.015-.861z" fill="#a1d5d3"/><path d="m222.739 460.023c-.678.132-1.357.28-2.03.445.679-.165 1.352-.313 2.03-.445z" fill="#a1d5d3"/><path d="m224.2 459.771c-.487.077-.979.159-1.461.252.487-.093.974-.175 1.461-.252z" fill="#a1d5d3"/><path d="m328.293 472.229c-3.075.252-6.166.285-9.246.104z" fill="#ffc943"/><path d="m398.908 500.889c-.044-.976-.142-1.947-.306-2.907-.35-1.854-.854-3.675-1.51-5.441-.11-.302-.225-.593-.345-.883-4.098-10.061-12.819-16.078-23.876-16.078-.383 0-.777 0-1.165.022-2.057.077-4.393.159-6.445.159-1.63.016-3.261-.06-4.886-.23-.87-.094-1.729-.247-2.577-.461-1.192-.307-2.358-.708-3.49-1.201-.378-.17-.717-.335-1.045-.505-.794-.411-1.554-.883-2.271-1.415-.115-.088-.229-.17-.339-.269-.914-.724-1.751-1.541-2.495-2.441l-.158-.192-.066-.082c-.553-.67-.952-1.745-1.193-2.386l-.016-.044-.197.076-.35.138c-.536.208-1.078.427-1.636.647l-1.215.499-.842.351-.197.082c1.335-.51 2.626-1.02 3.879-1.53.268.735.689 1.832 1.296 2.567.077.093.148.187.23.285.695.845 1.472 1.619 2.314 2.31l.318.252c.837.647 1.729 1.218 2.67 1.7.344.181.706.352 1.067.522 1.159.51 2.358.921 3.583 1.234.482.126.985.23 1.521.318 2.019.296 4.06.428 6.1.395 1.992 0 4.153-.077 6.467-.159.389 0 .766-.022 1.144-.022 11.56 0 19.417 6.44 23.192 15.43h-80.343c-.602-2.819-1.259-6.001-2.003-9.687-.262-1.3-.536-2.66-.815-4.087-.022-.109-.044-.224-.066-.334v-.017c-.022-.115-.043-.225-.071-.345-.213-1.07-.996-3.626-1.472-5.42l-.552-.044h-.099v.028c.186.718.433 1.574.668 2.408.35 1.234.711 2.507.842 3.148 0 .066.028.132.039.198v.022c0 .044.016.088.027.132.306 1.535.596 2.995.876 4.382v.044l.021.061c.739 3.675 1.39 6.818 1.986 9.599.082.395.17.784.247 1.163.673 3.126 1.28 5.781 1.871 8.217l.115.466h81.628l-.049-.664zm-81.081.039c-.58-2.386-1.182-5.008-1.844-8.069h80.573c.629 1.7 1.116 3.456 1.449 5.238.154.938.252 1.882.29 2.831h-80.474z" fill="#001858"/><path d="m398.958 501.515h-81.771c-.591-2.869-1.199-6.029-1.872-9.709h81.875c.64 2.051 1.133 4.158 1.478 6.302.153 1.13.251 2.266.29 3.407z" fill="url(#p)"/><path d="m397.699 493.868-81.891.494c-.613-2.919-1.899-9.293-2.654-13.105-.268-1.344-.541-2.754-.826-4.229-.022-.115-.044-.23-.066-.351v-.022c-.021-.121-.043-.236-.071-.357-.218-1.108-1.006-3.752-1.493-5.606l.667.061.443.038 1.253.115.722.066 1.128.099 1.012.082.973.071.411.028c.416.027.831.055 1.264.077 3.124.192 6.253.159 9.372-.105 3.835-.351 7.747-1.168 11.374-2.797l1.012-.45 1.007-.444.76-.329.044-.017c1.351-.526 2.665-1.053 3.934-1.58.268.757.7 1.898 1.313 2.655.077.094.153.192.235.297.706.872 1.488 1.673 2.347 2.391l.318.258c.848.669 1.756 1.262 2.708 1.761.35.186.716.367 1.083.537 1.176.527 2.391.955 3.633 1.278.487.132 1.001.242 1.543.33 2.046.307 4.114.444 6.182.405 2.019 0 4.213-.076 6.554-.164.394 0 .777-.022 1.16-.022 7.928-.006 21.097 2.529 24.555 18.551z" fill="url(#q)"/><path d="m312.832 477.51c.022.11.044.225.065.335-.224-.077-.448-.153-.667-.23l-.41-.148-.268-.11c-2.884-1.141-4.919-2.699-5.34-4.783-.038-.154-.017-.313.06-.45.246-.428 1.105-.56 2.429-.538h.728l.465.028h.115l.459.033h.285l.552.044c.476 1.793 1.259 4.349 1.472 5.419.022.115.044.23.071.346-.011.043-.011.049-.011.054z" fill="#001858"/><path d="m370.842 466.025c-.044-.077-.093-.154-.143-.231-1.603-2.337-4.409-3.269-8.064-3.192h-.23c-.164 0-.328 0-.498.022l-.492.033-.268.022-.367.032-.405.044c-.197.022-.399.05-.596.077l-.208.028-.383.06-.52.088c-.186.033-.372.066-.558.104s-.448.088-.673.132c-.224.043-.454.093-.683.148-.23.055-.476.109-.717.164l-.465.115c-1.412.351-2.878.785-4.399 1.278-.536.182-1.078.363-1.641.555-.186.06-.367.126-.553.197-.558.197-1.116.4-1.685.614l-.574.22-.197.077-.351.137h-.021c-.537.208-1.067.422-1.603.636l-1.215.499-.843.351-.197.083-.043.016-.75.318c-.328.137-.662.28-.996.428l-1.001.439c-3.572 1.574-7.43 2.364-11.216 2.704l-9.246.104c-.421-.022-.837-.044-1.242-.071l-.404-.027-.963-.072-1.002-.077-1.11-.093-.711-.06-1.231-.11-.438-.033-.662-.055-.553-.043h-.284l-.46-.033h-.115l-.465-.028h-.727c-1.335-.016-2.183.115-2.43.538l-21.714-107.667-19.412-88.994-8.475 1.037-8.009-64.782 57.14.537 38.451 141.347 26.617 112.411z" fill="url(#r)"/><path d="m361.628 475.032c-.404.17-.82.334-1.247.499 0 0-.005 0-.011 0-.826.323-1.734.378-2.593.164-.044-.011-.088-.022-.132-.033-1.225-.312-2.423-.724-3.583-1.234-.372-.164-.733-.334-1.067-.521-.941-.483-1.833-1.053-2.67-1.7l-.317-.253c-.843-.696-1.614-1.47-2.314-2.309-.083-.099-.159-.192-.23-.285-.608-.735-1.286-2.535-.722-2.792.563-.214 1.69-.67 2.248-.873l.553-.197c.552-.192 1.099-.378 1.641-.554 1.521-.499 2.993-.927 4.399-1.278l.465-.115c.241-.061.481-.11.717-.165.235-.055.459-.104.683-.148.225-.044.449-.093.673-.132.225-.038.378-.071.558-.104l.52-.088.383-.06.208-.027c.203-.028.4-.055.596-.077l.405-.044.367-.033.268-.022.492-.033c.17 0 .334-.016.498-.022h.23c3.655-.082 6.467.856 8.064 3.193.055.077.104.153.143.23 1.4 2.606-2.26 6.105-9.23 9.002z" fill="#001858"/><path d="m350.002 471.96c-3.808 1.607-7.326 2.841-10.318 3.565-8.836 2.139-18.651 2.359-26.809 1.969h-.049c-.022-.115-.044-.225-.071-.345-.213-1.07-.996-3.626-1.472-5.42l.662.055.438.033 1.231.11.711.06 1.111.093 1.001.077.963.071.405.028c.41.027.82.049 1.242.071l9.246-.104c3.78-.335 7.637-1.125 11.216-2.704l1.001-.439c.334-.148.667-.291.996-.428l.749-.318.044-.017.197-.082.842-.351 1.215-.499c.536-.22 1.663-.615 2.199-.823.35.911.11 2.057.717 2.792.077.093.148.187.23.285.695.84 1.472 1.613 2.32 2.31z" fill="url(#s)"/><path d="m310.977 226.956-14.044-119.641-108.229 5.853 1.296 14.515 3.721 41.567 3.769 42.128.815 9.1.493 5.513c.208 2.326.317 4.69.629 7.005.569 4.284 2.167 3.406 5.963 2.912 5.608-.724 30.245 3.456 36.673 3.813 19.494 1.091 39.173.055 58.273-3.988 2.402-.505 4.82-1.07 6.904-2.337 2.085-1.261 3.792-3.335 3.961-5.71l-.224-.735z" fill="url(#u)"/><path d="m116.808 178.4c-1.012 32.978 58.048 61.529 58.048 61.529l12.151-32.391s-33.97-16.001-34.593-27.602c-.739-13.73 11.106-22.687 39.922-26.198l-3.633-40.564c-44.261 6.544-70.85 31.519-71.895 65.232z" fill="url(#v)"/><path d="m189.311 211.554c.032.751.021 1.508-.044 2.26v.087c-.017.22-.038.445-.066.67-.257 2.166-.7 4.306-1.335 6.39-.459 1.569-1.028 3.214-1.707 4.871-1.515 3.747-3.31 7.016-5.104 9.473-.252.34-.498.669-.744.977-.247.307-.471.57-.706.839 0 .005-.011.016-.017.022-.508.587-1.061 1.124-1.652 1.623-1.105.9-2.134 1.355-2.982 1.251-.169-.016-.333-.06-.486-.121-.214-.087-.411-.213-.58-.373-.991-.921-1.352-3.027-1.144-5.841 0-.061 0-.121.017-.187v-.066c.016-.197.038-.395.06-.598.35-3.176 1.378-7.103 3.036-11.184 1.817-4.493 4.043-8.316 6.177-10.861l.038-.05c.077-.093.154-.186.236-.268.027-.039.06-.066.087-.099 1.527-1.728 2.987-2.776 4.18-2.907.328-.039.662 0 .968.12.367.165.684.428.909.763.487.702.771 1.81.853 3.209z" fill="#001858"/><path d="m231.712 224.384c-.159.888-.668 1.673-1.406 2.188-.733.549-1.647.785-2.555.659 1.843.334 3.775 1.788 3.359 4.064-.159.889-.668 1.673-1.406 2.189-.668.461-2.134.57-2.998.461-.055 0-.115-.028-.17-.033l-16.791-3.061 16.791 3.055.17.028c1.767.439 2.877 2.205 2.505 3.993s-2.09 2.962-3.884 2.66l-16.796-3.049v.033l14.504 2.643c1.63.297 2.669 2.03 2.341 3.879-.148.866-.602 1.651-1.286 2.205-.629.521-1.455.74-2.259.603l-14.504-2.644v.033s-9.952-1.816-17.754-3.236c-2.423-.439-4.573-1.827-5.974-3.856-1.401-2.03-1.942-4.537-1.505-6.967l2.774-15.364c.438-2.43 1.822-4.586 3.846-5.99 2.025-1.405 4.525-1.948 6.949-1.509l1.668.302 1.423 7.411 18.881 3.291 11.347 2.062c1.838.335 3.058 2.101 2.73 3.95z" fill="url(#x)"/><path d="m187.407 212.667-2.418 8.102-1.297 4.69 1.384 11.931s-.902-1.328-4.026-2.079c-2.791-.67-5.543-1.498-8.24-2.48.35-3.176 1.379-7.103 3.037-11.184 1.816-4.493 4.043-8.316 6.176-10.861 3.847 1.3 5.384 1.881 5.384 1.881z" fill="url(#z)"/><path d="m377.44 155.384c6.691 32.303-42.456 69.631-42.456 69.631l-17.557-29.797s26.601-20.614 25.211-32.149c-1.641-13.653-12.501-21.388-41.487-19.852l-4.722-35.89c44.721-1.235 74.166 15.029 81.011 48.051z" fill="url(#A)"/><path d="m315.403 199.826c.093.752.241 1.492.432 2.222l.022.082c.055.214.115.433.18.653.63 2.09 1.439 4.119 2.424 6.061.766 1.541 1.603 3.044 2.522 4.503 2.134 3.418 4.47 6.336 6.659 8.448.306.291.607.57.897.828s.563.483.842.702c.006.006.011.011.022.017.602.488 1.237.927 1.904 1.311 1.242.696 2.331.965 3.152.713.388-.11.727-.346.968-.675.815-1.07.799-3.214.115-5.946 0-.06-.033-.121-.049-.181v-.016s0-.033 0-.044c-.05-.192-.11-.384-.164-.582-.892-3.061-2.583-6.758-4.919-10.493-2.566-4.109-5.416-7.493-7.96-9.638l-.05-.038c-.093-.083-.186-.16-.268-.231l-.098-.082c-1.806-1.437-3.42-2.216-4.618-2.139-.328.016-.651.115-.935.285-.334.225-.602.537-.766.905-.394.801-.482 1.942-.318 3.335z" fill="#001858"/><path d="m275.852 219.815c.312.844.947 1.536 1.762 1.909.815.411 1.762.488 2.632.208-1.757.653-3.409 2.408-2.61 4.586.312.845.946 1.536 1.762 1.909.733.34 2.199.192 3.031-.061.049-.027.104-.049.158-.065l16.02-5.93-16.02 5.924-.164.06c-1.652.708-2.462 2.589-1.844 4.284.307.851.941 1.547 1.762 1.926.821.378 1.756.417 2.604.104l16.02-5.924v.027l-13.831 5.124c-1.554.57-2.282 2.463-1.636 4.223.295.829.881 1.525 1.652 1.948.711.406 1.559.477 2.331.203l13.831-5.118v.033l16.927-6.265c4.809-1.782 7.271-7.136 5.493-11.958l-5.394-14.651c-.854-2.315-2.588-4.202-4.826-5.233-2.237-1.031-4.792-1.136-7.101-.28l-1.603.593-.121 7.542-18 6.522-10.816 4.015c-1.756.642-2.659 2.595-2.019 4.356z" fill="url(#B)"/><path d="m316.973 200.984 4.016 6.966 1.554 5.672.257 10.044s1.893-.593 4.842-1.876c2.631-1.147 5.192-2.436 7.676-3.873-.892-3.061-2.583-6.758-4.919-10.494-2.566-4.108-5.416-7.493-7.96-9.637-3.556 1.958-5.466 3.192-5.466 3.192z" fill="url(#C)"/><path d="m247.113 122.466c-5.898 0-10.729-4.838-10.729-10.757v-1.925-11.5795c0-5.9132 4.825-10.7567 10.729-10.7567 5.897 0 10.728 4.838 10.728 10.7567v5.3425 8.162c0 5.914-4.825 10.757-10.728 10.757z" fill="url(#D)"/><path d="m236.384 111.649s7.265-10.554 21.425-5.167l.125-11.2232-21.55-.4717v16.8679z" fill="url(#E)"/></g><path d="m276.17 72.9828c0-15.9679-13.087-34.8046-29.014-34.8046-15.926 0-25.041 15.7155-25.041 31.6834 0 15.9678 8.119 29.7799 25.211 32.0344 15.795 2.079 28.838-12.9454 28.838-28.9132z" fill="url(#F)"/><path clip-rule="evenodd" d="m223.111 79.1703s1.795 9.2483 7.906 15.0298c0 0-6.735-16.6535-1.297-31.6559 4.678-12.907-6.609 16.6261-6.609 16.6261z" fill="url(#H)" fill-rule="evenodd"/><path d="m255.544 78.9507c1.499.6363 3.972-.1152 3.972-2.1338 0-2.249-2.993-2.1338-2.993-2.1338-.804-1.0367-1.264-5.8857-1.264-5.8857" stroke="#053256" stroke-linecap="round" stroke-miterlimit="10" stroke-width="1.9"/><path d="m239.771 63.5202s3.742-2.6549 7.572-1.7882" stroke="#053256" stroke-linecap="round" stroke-miterlimit="10" stroke-width="1.9"/><path d="m264.637 61.1562s4.513.3127 6.505 2.3642" stroke="#053256" stroke-linecap="round" stroke-miterlimit="10" stroke-width="1.9"/><path d="m245.411 70.9916c1.064 0 1.926-.8645 1.926-1.9309 0-1.0663-.862-1.9308-1.926-1.9308-1.063 0-1.926.8645-1.926 1.9308 0 1.0664.863 1.9309 1.926 1.9309z" fill="#053256"/><path d="m267.115 71.4193c1.064 0 1.926-.8645 1.926-1.9308 0-1.0664-.862-1.9309-1.926-1.9309-1.063 0-1.926.8645-1.926 1.9309 0 1.0663.863 1.9308 1.926 1.9308z" fill="#053256"/><path d="m237.002 81.4629c2.273 0 4.115-1.8469 4.115-4.125 0-2.2782-1.842-4.125-4.115-4.125-2.272 0-4.114 1.8468-4.114 4.125 0 2.2781 1.842 4.125 4.114 4.125z" fill="url(#J)" opacity=".2"/><path d="m269.046 82.2309c2.273 0 4.115-1.8468 4.115-4.125 0-2.2781-1.842-4.1249-4.115-4.1249-2.272 0-4.114 1.8468-4.114 4.1249 0 2.2782 1.842 4.125 4.114 4.125z" fill="url(#K)" opacity=".2"/><path d="m238.715 85.5s10.258 11.6344 23.542 2.0515" stroke="#053256" stroke-linecap="round" stroke-miterlimit="10" stroke-width="1.9"/><path clip-rule="evenodd" d="m229.239 76.0272c-2.791-.2524-1.516-10.2247 11.609-18.4253 14.521-9.0673 28.012-6.193 28.012-6.193s-14.175-15.8033-19.225-11.6618c-5.384 4.4102-32.236 17.3446-26.819 29.5111 3.31 7.4327 6.423 6.7744 6.423 6.7744z" fill="url(#L)" fill-rule="evenodd"/><path d="m220.31 83.7505c3.816 0 6.91-3.1017 6.91-6.928 0-3.8262-3.094-6.928-6.91-6.928s-6.91 3.1018-6.91 6.928c0 3.8263 3.094 6.928 6.91 6.928z" fill="url(#M)"/><path d="m216.261 75.0922-.003.0049c-1.069 2.0544-.276 4.5893 1.773 5.662l.005.0025c2.049 1.0726 4.578.2768 5.648-1.7776l.002-.0049c1.07-2.0543.276-4.5893-1.773-5.6619l-.005-.0026c-2.049-1.0726-4.577-.2767-5.647 1.7776z" fill="url(#N)"/><path d="m218.269 82.1047c1.463 0 2.648-1.1886 2.648-2.6549 0-1.4662-1.185-2.6549-2.648-2.6549-1.462 0-2.648 1.1887-2.648 2.6549 0 1.4663 1.186 2.6549 2.648 2.6549z" fill="url(#O)"/><path d="m275.617 67.1298s8.743-7.7727 3.562-16.083-6.62-1.7334-13.99-12.8687c-8.25-12.4627-10.876-.0548-22.968 0-12.091.0549-18.109-2.0186-20.106 6.9829-1.997 9.0014-.974 4.849-6.494 9.6981-5.52 4.849 4.694 15.0353 4.694 15.0353s6.516 0 6.91 6.928c.493 8.7272 4.224-2.5671 3.797-11.3437-.421-8.771-3.496-13.6201 5.986-14.0809 9.481-.4607 10.471 3.006 17.08-2.4245 6.183-5.0794 12.863 2.452 15.615 4.6077 3.463 2.7152 5.92 13.5488 5.92 13.5488z" fill="url(#P)"/><g mask="url(#ad)"><g fill="#fff" mask="url(#ae)"><path d="m218.401 164.149 2.347 2.354c.18.181.47.181.656 0l14.121-14.158c.181-.181.181-.477 0-.658l-2.347-2.353c-.181-.182-.476-.182-.657 0l-14.12 14.157c-.181.181-.181.477 0 .658z"/><path d="m221.404 149.328c-.18-.181-.476-.181-.656 0l-2.347 2.353c-.181.181-.181.478 0 .659l4.732 4.744 3.004-3.011-4.733-4.75z"/><path d="m235.525 163.491-4.738-4.75-3.004 3.011 4.738 4.75c.181.182.476.182.657 0l2.347-2.353c.18-.181.18-.477 0-.658z"/></g></g><path clip-rule="evenodd" d="m279.179 332.571-13.831-56.943 35.278-5.996-8.409 128.434z" fill="url(#Q)" fill-rule="evenodd"/><path clip-rule="evenodd" d="m212.093 223.643c-.334-.06-.657.148-.734.477-.082.33-1.821 14.147-.88 7.126l16.063 2.852c2.287.406 4.524-1.294 4.524-3.626 0-1.914-2.128-3.038-3.08-3.181" fill="url(#S)" fill-rule="evenodd"/><path clip-rule="evenodd" d="m210.238 230.006c-.334-.06-.657.149-.734.478-.082.329-1.821 14.146-.88 7.125l16.063 2.853c2.287.405 4.524-1.295 4.524-3.626 0-1.915-2.128-3.039-3.08-3.182" fill="url(#U)" fill-rule="evenodd"/><path clip-rule="evenodd" d="m206.971 236.331c-.333-.061-.656.148-.733.477-.082.329-1.822 14.147-.881 7.125l16.064 2.853c2.287.406 4.065-1.18 4.065-3.511 0-1.914-1.669-3.154-2.616-3.302" fill="url(#V)" fill-rule="evenodd"/><path clip-rule="evenodd" d="m294.635 215.256c.311-.126.673.011.815.318.142.308 4.656 13.478 2.309 6.797l-15.15 6.072c-2.161.867-4.694-.34-5.17-2.622-.388-1.876 1.466-3.412 2.369-3.747" fill="url(#W)" fill-rule="evenodd"/><path clip-rule="evenodd" d="m297.545 221.328c.312-.126 16.342-8.963 16.49-8.656.142.308-11.013 22.452-13.36 15.771l-15.15 6.072c-2.161.867-4.694-.34-5.17-2.622-.388-1.876 1.466-3.412 2.369-3.746" fill="url(#X)" fill-rule="evenodd"/><path clip-rule="evenodd" d="m301.988 226.956c.312-.126.673.011.815.319.142.307 4.656 13.477 2.309 6.796l-15.15 6.072c-2.161.867-4.218-.323-4.694-2.605-.388-1.876.99-3.429 1.893-3.763" fill="url(#Y)" fill-rule="evenodd"/><path clip-rule="evenodd" d="m482.879 295.88c-.06-.384-.41-.653-.848-.653-.432 0-.837.269-.979.653-1.177 3.039-2.572 6.023-4.175 8.93-.241.439-.06.938.405 1.119s1.034-.033 1.275-.472c1.641-2.978 3.069-6.034 4.278-9.149.055-.137.071-.286.049-.428z" fill="#202850" fill-rule="evenodd"/><path clip-rule="evenodd" d="m471.685 315.446c-.066-.329-.345-.571-.711-.62-.367-.049-.744.104-.974.395-1.849 2.353-3.835 4.619-5.953 6.791-11.226 11.508-25.894 19.807-41.875 23.697-5.603 1.376-11.298 2.21-16.983 2.473-.52.022-.963.423-.985.895-.021.471.383.833.903.811 5.832-.268 11.67-1.119 17.409-2.534 16.375-3.988 31.399-12.49 42.905-24.278 2.172-2.222 4.207-4.547 6.094-6.955.154-.203.214-.45.17-.675z" fill="#202850" fill-rule="evenodd"/><path clip-rule="evenodd" d="m396.146 348.676c-.071-.345-.378-.597-.766-.625-1.379-.093-2.78-.23-4.142-.406-.328-.038-.673.082-.903.324-.229.241-.311.565-.213.845.099.285.361.482.689.521 1.412.175 2.84.312 4.246.417.246.016.498-.055.706-.203.202-.148.344-.357.383-.582.016-.099.016-.197 0-.296z" fill="#202850" fill-rule="evenodd"/><path clip-rule="evenodd" d="m487.064 313.263c-.049-.225-.197-.417-.41-.527-.208-.104-.465-.131-.712-.06-.246.066-.459.214-.596.417-.864 1.256-1.778 2.512-2.714 3.73-.311.406-.218.927.197 1.174.422.247 1.013.115 1.319-.291.957-1.245 1.893-2.529 2.779-3.812.132-.192.186-.423.137-.631z" fill="#202850" fill-rule="evenodd"/><path clip-rule="evenodd" d="m477.66 329.851c-.066-.318-.329-.56-.679-.615-.35-.054-.728.077-.963.346-.804.905-1.63 1.805-2.467 2.66-8.913 9.227-19.849 16.391-31.612 20.724-5.066 1.865-10.297 3.22-15.593 4.043-.52.082-.908.521-.87.987.039.466.498.779 1.018.697 5.438-.845 10.811-2.233 16.014-4.147 12.069-4.443 23.279-11.788 32.416-21.245.853-.878 1.696-1.794 2.544-2.732.181-.214.252-.477.197-.718z" fill="#202850" fill-rule="evenodd"/><g filter="url(#b)"><path d="m142.664 406.755c36.389 0 65.889-29.576 65.889-66.06s-29.5-66.06-65.889-66.06-65.8881 29.576-65.8881 66.06 29.4991 66.06 65.8881 66.06z" fill="#fff"/></g><path clip-rule="evenodd" d="m158.787 349.439-4.88 3.587-38.768-40.41c-.263-.264-.591-.45-.947-.538l-6.866-1.722c-.137-.033-.246-.138-.29-.269l-3.178-9.572c-.05-.148-.011-.307.098-.417l1.942-1.947c.11-.11.274-.148.416-.099l9.547 3.187c.131.044.235.154.268.291l1.718 6.884c.093.356.274.691.536.949l40.41 40.07z" fill="url(#aa)" fill-rule="evenodd"/><path clip-rule="evenodd" d="m157.294 317.706c.52-.521.717-1.273.531-1.98-.318-1.185-.487-2.43-.487-3.714 0-7.915 6.412-14.339 14.301-14.339 1.007 0 1.992.105 2.938.302l-7.752 7.767c-.843.845-1.319 1.991-1.319 3.187v4.718c0 1.195.476 2.342 1.319 3.187.842.844 1.986 1.322 3.178 1.322h4.705c1.193 0 2.337-.478 3.179-1.322l7.747-7.773c.197.949.301 1.936.301 2.946 0 7.915-6.412 14.338-14.301 14.338-1.281 0-2.522-.17-3.704-.488-.706-.192-1.456.011-1.975.532l-37.182 37.279c-.52.521-.717 1.272-.531 1.98.318 1.185.487 2.43.487 3.713 0 7.916-6.412 14.339-14.301 14.339s-14.302-6.429-14.302-14.339 6.413-14.338 14.302-14.338c1.28 0 2.522.17 3.704.488.706.192 1.455-.011 1.975-.532l37.187-37.279zm-43.813 45.528c.81-.466 1.811-.466 2.621 0 1.204.697 2.632 1.525 3.835 2.222.81.466 1.308 1.333 1.308 2.276v4.438c0 .938-.498 1.805-1.308 2.276-1.203.697-2.626 1.525-3.835 2.222-.81.466-1.811.466-2.621 0-1.203-.697-2.626-1.525-3.835-2.222-.81-.466-1.307-1.333-1.307-2.276v-4.438c0-.938.497-1.804 1.307-2.276z" fill="url(#ab)" fill-rule="evenodd"/><path clip-rule="evenodd" d="m161.939 343.63 21.66 22.292c3.595 3.703 3.595 9.709 0 13.412-3.594 3.697-9.432 3.697-13.027 0 0 0-15.39-15.847-21.654-22.298-.717-.741-.717-1.942 0-2.683l10.422-10.723c.723-.741 1.888-.741 2.605 0z" fill="url(#ac)" fill-rule="evenodd"/></svg>