<svg width="544" height="591" viewBox="0 0 544 591" fill="none" xmlns="http://www.w3.org/2000/svg">
<path d="M86.7319 197.647V424.856C86.7319 428.074 89.3281 430.681 92.5325 430.681H263.476C266.68 430.681 269.276 428.074 269.276 424.856V242.088C269.276 238.87 266.68 236.263 263.476 236.263H230.557C227.559 236.23 225.055 233.415 225.028 230.71V197.653C225.028 194.435 222.432 191.828 219.227 191.828H92.5325C89.3281 191.828 86.7319 194.435 86.7319 197.653V197.647ZM236.086 211.441V219.327C236.086 222.545 238.682 225.152 241.887 225.152H249.74C254.905 225.152 257.496 218.88 253.841 215.21L245.987 207.323C242.332 203.652 236.086 206.254 236.086 211.441ZM134.978 244.057C146.199 236.737 158.169 248.758 150.88 260.026C150.424 260.73 149.821 261.341 149.115 261.799C137.894 269.118 125.924 257.097 133.213 245.829C133.669 245.126 134.272 244.515 134.978 244.057ZM183.533 264.04H235.825C238.867 264.04 241.534 266.397 241.61 269.451C241.686 272.587 239.182 275.151 236.081 275.151H183.788C180.747 275.151 178.08 272.794 178.004 269.74C177.928 266.604 180.432 264.04 183.533 264.04ZM142.044 266.817C150.288 266.817 159.641 269.347 162.938 278.505C164.296 282.279 161.455 286.255 157.458 286.255H126.625C122.627 286.255 119.787 282.274 121.144 278.505C124.447 269.347 133.799 266.817 142.038 266.817H142.044ZM119.917 302.923H235.825C238.867 302.923 241.534 305.279 241.61 308.334C241.686 311.47 239.182 314.033 236.081 314.033H120.178C117.136 314.033 114.469 311.677 114.393 308.623C114.317 305.487 116.821 302.923 119.922 302.923H119.917ZM119.917 341.806H235.825C238.867 341.806 241.534 344.162 241.61 347.216C241.686 350.352 239.182 352.916 236.081 352.916H120.178C117.136 352.916 114.469 350.56 114.393 347.505C114.317 344.369 116.821 341.806 119.922 341.806H119.917ZM119.917 380.688H235.825C238.867 380.688 241.534 383.044 241.61 386.099C241.686 389.235 239.182 391.798 236.081 391.798H120.178C117.136 391.798 114.469 389.442 114.393 386.388C114.317 383.252 116.821 380.688 119.922 380.688H119.917Z" fill="url(#paint0_linear_2910_1011)"/>
<path fill-rule="evenodd" clip-rule="evenodd" d="M193.82 101.136C201.304 93.8441 206.746 90.9098 215.822 90.2007C219.048 89.9498 219.667 93.5387 217.359 93.9804C205.22 96.3203 191.148 110.605 183.387 119.5C183.294 119.604 183.218 119.713 183.148 119.833C164.486 151.565 207.338 168.735 212.846 173.485C217.288 177.32 226.549 126.623 231.529 129.721C235.706 132.323 240.496 133.714 245.216 135.072L277.89 144.502C281.719 145.609 285.809 146.695 289.627 145.566C294.868 143.995 298.04 138.677 300.153 133.588C306.828 117.482 310.168 93.675 305.834 76.8381C301.951 61.7628 298.888 52.0272 283.794 45.8913C274.86 42.2588 262.52 41.4734 256.622 45.2259C241.61 54.7652 243.407 65.6244 222.714 70.8876C214.442 72.9929 206.019 73.6038 197.513 74.3128C193.76 74.6401 190.067 75.2727 186.461 76.1999C172.812 79.7015 171.53 99.5328 185.114 103.274C185.266 103.318 186.58 103.651 186.743 103.64C189.904 103.438 192.169 102.751 193.831 101.136H193.82Z" fill="url(#paint1_linear_2910_1011)"/>
<path fill-rule="evenodd" clip-rule="evenodd" d="M313.568 124.344H220.775L220.232 240.375H313.568V124.344Z" fill="url(#paint2_linear_2910_1011)"/>
<path fill-rule="evenodd" clip-rule="evenodd" d="M309.277 458.858C334.739 418.377 367.712 352.3 355.215 311.29C347.443 285.798 334.522 266.31 313.568 240.375C303.873 228.382 220.232 240.375 220.232 240.375C220.232 240.375 279.737 280.349 294.184 320.388C309.359 362.45 267.457 424.011 267.457 424.011C267.457 424.011 272.644 439.615 285.456 446.133C297.622 452.318 309.277 458.852 309.277 458.852V458.858Z" fill="url(#paint3_linear_2910_1011)"/>
<path fill-rule="evenodd" clip-rule="evenodd" d="M290.964 455.46L290.784 455.345C287.265 453.032 283.952 450.42 280.883 447.535C276.185 443.139 272.416 438.563 269.977 434.537C269.836 434.303 269.695 434.074 269.564 433.85C267.05 429.498 266.165 425.893 267.452 424.016C268.207 422.926 269.852 425.184 272.53 428.636C272.807 429.001 273.106 429.383 273.41 429.77C276.533 433.763 280.867 438.89 286.57 442.435C289.769 444.431 292.821 446.144 295.591 447.687L296.645 448.271C303.521 452.105 308.452 454.98 309.278 458.847C310.293 463.592 301.582 462.359 290.964 455.449V455.46Z" fill="#050B19"/>
<path fill-rule="evenodd" clip-rule="evenodd" d="M359.494 269.891C315.094 253.627 219.851 240.482 219.851 240.482C219.851 240.482 213.866 244.606 208.945 253.638C205.404 260.134 206.007 265.032 206.414 271.08C206.631 274.309 209.537 281.181 212.193 284.137C219.84 292.662 234.293 295.973 243.884 297.92L303.085 311.43C303.085 311.43 284.239 329.903 277.765 335.865C253.34 358.368 243.048 367.766 243.048 367.766L260.917 388.993L297.594 406.457C297.594 406.457 305.6 381.341 350.391 342.617C362.465 332.177 371.264 323.707 373.137 321.618C375.614 318.848 377.542 315.619 378.802 312.117C384.304 296.955 374.571 275.416 359.489 269.891H359.494Z" fill="url(#paint4_linear_2910_1011)"/>
<path fill-rule="evenodd" clip-rule="evenodd" d="M297.975 406.35C297.937 404.921 297.568 403.525 296.9 402.26C294.125 397.056 286.336 395.158 277.673 392.186C276.06 391.624 274.431 391.046 272.785 390.391C272.003 390.081 271.226 389.759 270.45 389.421C269.673 389.082 268.891 388.712 268.12 388.335C265.089 386.879 262.248 385.063 259.652 382.919C253.651 377.891 250.001 373.304 247.611 370.429C246.981 369.644 246.308 368.897 245.596 368.188C244.667 367.315 244.016 367.064 243.44 367.664C243.413 367.697 243.38 367.729 243.353 367.768C242.718 368.537 242.517 369.922 242.756 371.749C242.946 373.14 243.272 374.504 243.733 375.829C245.46 381.032 249.279 387.888 255.079 394.498C255.997 395.54 256.969 396.533 257.99 397.487C259.169 398.578 260.396 399.609 261.678 400.574C263.525 401.96 265.453 403.22 267.457 404.354C269.222 405.363 271.036 406.274 272.899 407.087C285.63 412.677 298.269 412.808 297.986 406.356L297.975 406.35Z" fill="#101B33"/>
<path fill-rule="evenodd" clip-rule="evenodd" d="M243.049 454.199C241.898 454.592 240.719 454.897 239.524 455.105L237.33 455.487L229.509 409.917L226.994 395.229L230.937 390.697L243.043 454.199H243.049Z" fill="url(#paint5_linear_2910_1011)"/>
<path fill-rule="evenodd" clip-rule="evenodd" d="M244.271 453.747L243.885 453.9C243.609 454.003 243.326 454.107 243.049 454.199L230.948 390.691L232.018 389.459L232.268 389.181L236.847 384.065L239.361 381.261C242.93 391.395 249.653 399.969 257.616 407.365C256.752 409.541 256.236 411.848 256.09 414.188C256.073 414.406 256.062 414.624 256.057 414.848C256.046 415.071 256.041 415.284 256.041 415.508V416.19C256.079 416.702 256.138 417.209 256.225 417.711C256.334 418.322 256.481 419.184 256.66 420.237L256.779 420.935C256.817 421.158 256.855 421.393 256.899 421.633C257.035 422.424 257.176 423.285 257.339 424.196L258.11 428.685C259.913 439.261 254.161 449.683 244.271 453.747Z" fill="url(#paint6_linear_2910_1011)"/>
<path fill-rule="evenodd" clip-rule="evenodd" d="M257.615 407.343C258.457 405.265 259.565 403.301 260.912 401.512L261.662 400.563L270.439 389.42C269.662 389.082 268.88 388.717 268.109 388.335C265.078 386.879 262.237 385.063 259.641 382.925C253.64 377.896 249.99 373.309 247.6 370.435L243.706 375.823L241.669 378.627L239.355 381.217C242.924 391.373 249.648 399.947 257.61 407.343H257.615Z" fill="url(#paint7_linear_2910_1011)"/>
<path fill-rule="evenodd" clip-rule="evenodd" d="M244.271 453.747L243.885 453.9C243.609 454.003 243.326 454.107 243.049 454.2L230.948 390.692L232.018 389.459L244.277 453.742L244.271 453.747Z" fill="#001858"/>
<path fill-rule="evenodd" clip-rule="evenodd" d="M269.141 513.153C267.989 513.546 266.811 513.846 265.616 514.053L263.422 514.435L255.606 468.849L253.091 454.161L257.034 449.629L269.135 513.153H269.141Z" fill="url(#paint8_linear_2910_1011)"/>
<path fill-rule="evenodd" clip-rule="evenodd" d="M270.357 512.69L269.971 512.842C269.694 512.946 269.412 513.05 269.135 513.142L257.034 449.634L258.104 448.402L258.354 448.124L262.933 443.008L265.447 440.204C269.016 450.338 275.739 458.912 283.702 466.308C282.838 468.484 282.322 470.791 282.175 473.131C282.175 473.349 282.148 473.567 282.143 473.791C282.132 474.014 282.127 474.227 282.127 474.451V475.132C282.165 475.645 282.224 476.152 282.311 476.654C282.42 477.265 282.567 478.127 282.746 479.179L282.865 479.878C282.903 480.101 282.941 480.336 282.985 480.576C283.121 481.367 283.262 482.228 283.425 483.139L284.196 487.628C285.999 498.209 280.247 508.626 270.352 512.69H270.357Z" fill="url(#paint9_linear_2910_1011)"/>
<path fill-rule="evenodd" clip-rule="evenodd" d="M296.639 448.276L290.958 455.454L287.753 459.501L287.004 460.45C285.657 462.239 284.543 464.202 283.707 466.28C275.745 458.884 269.021 450.294 265.453 440.177L267.766 437.586L269.803 434.783L269.966 434.554L273.404 429.787C276.527 433.779 280.861 438.906 286.564 442.451C289.763 444.447 292.815 446.16 295.585 447.709L296.644 448.276H296.639Z" fill="url(#paint10_linear_2910_1011)"/>
<path fill-rule="evenodd" clip-rule="evenodd" d="M270.357 512.69L269.971 512.843C269.694 512.946 269.412 513.05 269.135 513.143L257.034 449.634L258.104 448.402L270.357 512.684V512.69Z" fill="#001858"/>
<path fill-rule="evenodd" clip-rule="evenodd" d="M274.833 110.91H262.917V123.313C262.917 126.618 265.583 129.296 268.875 129.296C272.166 129.296 274.833 126.618 274.833 123.313V110.91Z" fill="#FF9D9C"/>
<path fill-rule="evenodd" clip-rule="evenodd" d="M258.088 106.596V129.045C258.088 135.029 262.916 139.877 268.874 139.877C274.832 139.877 279.661 135.029 279.661 129.045V106.596H258.093H258.088Z" fill="url(#paint11_linear_2910_1011)"/>
<path fill-rule="evenodd" clip-rule="evenodd" d="M258.088 107.687V126.1C259.994 119.424 263.954 112.437 279.655 114.013V107.681H258.088V107.687Z" fill="black"/>
<path fill-rule="evenodd" clip-rule="evenodd" d="M375.398 159.414C375.398 210.989 376.533 213.579 371.867 223.173C357.404 252.942 309.717 248.911 305.829 213.667L303.314 124.328H312.438C318.815 124.328 323.888 128.778 325.718 134.609C325.995 135.509 325.913 131.838 325.913 194.168C325.913 203.467 339.649 204.793 341.186 195.439C341.338 194.528 341.295 189.903 341.295 159.409H375.398V159.414Z" fill="url(#paint12_linear_2910_1011)"/>
<path fill-rule="evenodd" clip-rule="evenodd" d="M375.267 159.496C375.267 160.805 373.806 161.999 371.395 162.921C371.047 163.057 370.678 163.183 370.292 163.303C367.218 164.268 362.993 164.857 358.327 164.835C353.363 164.808 348.899 164.099 345.808 162.992C345.292 162.806 344.782 162.599 344.287 162.359C342.484 161.486 341.436 160.445 341.441 159.327C341.447 158.209 342.435 157.259 344.119 156.42C344.869 156.06 345.64 155.754 346.433 155.509C349.507 154.543 353.716 153.96 358.376 153.982C363.351 154.009 367.816 154.718 370.906 155.836C371.34 155.989 371.742 156.152 372.117 156.321C374.11 157.216 375.262 158.312 375.256 159.49L375.267 159.496Z" fill="#001858"/>
<path fill-rule="evenodd" clip-rule="evenodd" d="M405.036 137.859C404.759 138.781 404.113 139.545 403.26 139.981L387.498 147.949L387.515 147.982L372.047 152.275L347.394 131.042C346.59 132.367 345.64 131.434 345.146 132.907C345.243 132.067 345.45 131.238 345.754 130.447C346.313 128.991 347.834 127.333 349.105 126.138C350.137 125.157 358.925 116.823 363.009 112.847C364.182 111.701 365.92 111.379 367.425 112.018C368.929 112.656 369.907 114.139 369.901 115.781V115.846C369.885 116.932 369.44 117.963 368.663 118.715L363.851 123.4C365.551 123.215 367.153 123.013 368.451 122.8C371.335 122.331 375.414 120.559 375.414 120.559L392.354 111.99C394.358 110.976 396.726 111.647 397.66 113.485C398.106 114.385 398.144 115.437 397.774 116.37C397.421 117.384 396.699 118.235 395.759 118.748C397.764 117.733 400.604 117.624 401.734 119.893C402.179 120.793 402.223 121.846 401.853 122.779C401.522 123.651 400.18 124.786 399.279 125.304L399.094 125.397L380.829 134.625L399.072 125.397C399.132 125.364 399.197 125.331 399.257 125.293C401.212 124.415 403.466 125.097 404.357 126.875C404.802 127.775 404.846 128.827 404.477 129.765C404.091 130.753 403.352 131.565 402.407 132.034L384.164 141.263V141.295L399.925 133.327C400.794 132.901 401.799 132.841 402.711 133.163C403.624 133.485 404.373 134.156 404.792 135.029C405.242 135.901 405.335 136.921 405.052 137.859H405.036Z" fill="url(#paint13_linear_2910_1011)"/>
<path fill-rule="evenodd" clip-rule="evenodd" d="M349.898 128.805C358.393 129.263 368.147 140.024 373.372 146.766C375.588 149.629 375.192 145.26 375.17 145.277C375.126 145.299 376.886 147.666 376.848 147.693C375.523 148.533 372.666 154.652 372.123 156.327C371.661 157.827 371.417 159.381 371.395 160.947V162.91C371.047 163.046 370.678 163.172 370.293 163.292C367.218 164.257 362.993 164.846 358.327 164.824C353.363 164.797 348.899 164.088 345.808 162.981C345.292 162.796 344.782 162.588 344.288 162.348C344.288 161.476 344.255 160.723 344.239 160.385C344.195 159.381 344.146 158.029 344.114 156.425C344.005 150.158 343.614 137.668 345.743 130.458C346.205 128.898 346.482 129.182 348.03 128.702L349.893 128.8L349.898 128.805Z" fill="url(#paint14_linear_2910_1011)"/>
<path fill-rule="evenodd" clip-rule="evenodd" d="M151.739 159.414C151.092 159.414 150.571 159.938 150.571 160.587C150.555 211.027 149.474 213.667 154.101 223.173C168.554 252.925 221.302 248.922 225.283 213.759C225.283 213.699 225.283 213.639 225.283 213.579L222.682 125.468C222.665 124.829 222.144 124.328 221.514 124.328H213.53C207.154 124.328 202.081 128.778 200.251 134.609C199.974 135.509 200.055 131.838 200.055 194.168C200.055 203.467 186.319 204.793 184.782 195.439C184.63 194.539 184.674 190.023 184.674 160.587C184.674 159.938 184.152 159.409 183.506 159.409H151.75L151.739 159.414Z" fill="url(#paint15_linear_2910_1011)"/>
<path fill-rule="evenodd" clip-rule="evenodd" d="M150.707 159.496C150.707 160.805 152.168 161.999 154.579 162.921C154.927 163.057 155.296 163.183 155.682 163.303C158.756 164.268 162.981 164.857 167.647 164.835C172.611 164.808 177.075 164.099 180.166 162.992C180.682 162.806 181.192 162.599 181.686 162.359C183.49 161.486 184.538 160.445 184.532 159.327C184.527 158.209 183.538 157.259 181.855 156.42C181.105 156.06 180.334 155.754 179.541 155.509C176.467 154.543 172.258 153.96 167.598 153.982C162.623 154.009 158.158 154.718 155.068 155.836C154.633 155.989 154.231 156.152 153.857 156.321C151.874 157.216 150.712 158.312 150.717 159.49L150.707 159.496Z" fill="#001858"/>
<path fill-rule="evenodd" clip-rule="evenodd" d="M329.286 123.116C329.145 123.116 329.004 123.067 328.895 122.98C328.037 122.32 327.125 121.726 326.174 121.208C325.952 121.109 325.805 120.891 325.789 120.646C325.778 120.4 325.903 120.171 326.12 120.051C326.332 119.931 326.593 119.942 326.794 120.084C327.804 120.635 328.765 121.268 329.678 121.971C329.895 122.14 329.982 122.429 329.895 122.691C329.808 122.953 329.563 123.127 329.286 123.127V123.116Z" fill="#001858"/>
<path fill-rule="evenodd" clip-rule="evenodd" d="M323.187 119.724C323.106 119.724 323.024 119.708 322.948 119.68C320.835 118.84 318.652 118.191 316.42 117.755C311.526 116.784 306.605 116.801 302.928 117.804C302.706 117.864 302.472 117.804 302.309 117.64C302.146 117.477 302.081 117.242 302.141 117.019C302.201 116.795 302.375 116.621 302.592 116.561C306.513 115.492 311.526 115.464 316.675 116.49C318.983 116.942 321.243 117.608 323.426 118.48C323.708 118.595 323.871 118.895 323.817 119.2C323.757 119.5 323.497 119.724 323.193 119.724H323.187Z" fill="#001858"/>
<path fill-rule="evenodd" clip-rule="evenodd" d="M325.435 114.019C325.332 114.019 325.234 113.997 325.142 113.948C320.955 111.783 315.393 110.659 310.266 110.949C309.918 110.954 309.63 110.687 309.609 110.338C309.587 109.989 309.848 109.689 310.19 109.661C315.534 109.356 321.34 110.534 325.723 112.803C325.989 112.934 326.125 113.234 326.06 113.523C325.995 113.812 325.74 114.019 325.441 114.019H325.425H325.435Z" fill="#001858"/>
<path fill-rule="evenodd" clip-rule="evenodd" d="M196.373 123.116C196.172 123.116 195.987 123.024 195.862 122.866C195.645 122.582 195.699 122.178 195.982 121.96C199.202 119.462 203.824 117.521 208.984 116.49C214.149 115.464 219.141 115.486 223.067 116.561C223.29 116.621 223.464 116.795 223.518 117.019C223.578 117.242 223.513 117.477 223.35 117.641C223.187 117.804 222.948 117.864 222.731 117.804C219.048 116.795 214.128 116.779 209.239 117.755C204.346 118.726 199.789 120.635 196.769 122.98C196.655 123.067 196.519 123.116 196.378 123.116H196.373Z" fill="#001858"/>
<path fill-rule="evenodd" clip-rule="evenodd" d="M200.224 114.019C199.93 114.014 199.68 113.806 199.615 113.517C199.55 113.228 199.686 112.934 199.947 112.803C203.053 111.194 206.948 110.108 210.918 109.748C211.271 109.716 211.586 109.977 211.618 110.332C211.651 110.686 211.39 111.003 211.037 111.036C207.23 111.379 203.499 112.415 200.539 113.954C200.446 114.003 200.338 114.024 200.229 114.024L200.224 114.019Z" fill="#001858"/>
<path fill-rule="evenodd" clip-rule="evenodd" d="M215.426 110.948H215.388C214.79 110.916 214.177 110.899 213.557 110.905C213.204 110.905 212.917 110.616 212.917 110.261C212.917 109.907 213.204 109.618 213.557 109.618C214.204 109.618 214.85 109.618 215.475 109.667C215.811 109.694 216.072 109.989 216.061 110.327C216.05 110.665 215.779 110.943 215.437 110.954H215.426V110.948Z" fill="#001858"/>
<path fill-rule="evenodd" clip-rule="evenodd" d="M326.761 251.076C326.685 251.076 326.609 251.06 326.538 251.033C325.577 250.673 324.615 250.275 323.687 249.838C323.48 249.74 323.339 249.538 323.317 249.309C323.296 249.08 323.399 248.856 323.589 248.726C323.779 248.595 324.018 248.573 324.23 248.666C325.131 249.086 326.06 249.473 326.989 249.822C327.282 249.931 327.456 250.231 327.402 250.542C327.347 250.853 327.081 251.076 326.766 251.071L326.761 251.076Z" fill="#001858"/>
<path fill-rule="evenodd" clip-rule="evenodd" d="M340.486 253.531C336.939 253.531 333.403 253.056 329.982 252.129C329.759 252.074 329.58 251.9 329.52 251.671C329.46 251.447 329.52 251.207 329.689 251.044C329.851 250.88 330.096 250.82 330.319 250.885C335.25 252.216 340.399 252.565 345.466 251.916C345.825 251.867 346.151 252.118 346.194 252.478C346.243 252.838 345.993 253.165 345.635 253.209C343.929 253.427 342.208 253.531 340.486 253.531Z" fill="#001858"/>
<path fill-rule="evenodd" clip-rule="evenodd" d="M353.396 251.365C353.081 251.365 352.82 251.136 352.766 250.825C352.711 250.514 352.89 250.214 353.184 250.111C354.455 249.669 355.704 249.156 356.926 248.584C357.132 248.485 357.377 248.502 357.572 248.633C357.762 248.764 357.871 248.987 357.849 249.216C357.827 249.445 357.692 249.653 357.485 249.751C356.225 250.345 354.933 250.869 353.613 251.327C353.542 251.354 353.466 251.365 353.39 251.365H353.396Z" fill="#001858"/>
<path fill-rule="evenodd" clip-rule="evenodd" d="M173.54 250.978C173.463 250.978 173.387 250.962 173.311 250.935C172.437 250.602 171.568 250.231 170.715 249.838C170.395 249.686 170.254 249.304 170.4 248.982C170.552 248.66 170.933 248.518 171.253 248.666C172.073 249.047 172.926 249.402 173.768 249.724C174.055 249.833 174.229 250.138 174.17 250.444C174.115 250.749 173.849 250.973 173.54 250.973H173.534L173.54 250.978Z" fill="#001858"/>
<path fill-rule="evenodd" clip-rule="evenodd" d="M187.52 253.53C184.782 253.53 182.05 253.247 179.367 252.691C179.134 252.652 178.938 252.489 178.862 252.265C178.786 252.041 178.835 251.791 178.998 251.616C179.155 251.442 179.4 251.371 179.628 251.425C182.224 251.96 184.869 252.227 187.52 252.227C193.201 252.249 198.817 251.005 203.96 248.584C204.28 248.431 204.666 248.567 204.824 248.889C204.981 249.211 204.84 249.598 204.519 249.756C199.202 252.265 193.396 253.552 187.52 253.536V253.53Z" fill="#001858"/>
<path fill-rule="evenodd" clip-rule="evenodd" d="M131.056 111.636C130.692 112.525 130.703 113.528 131.094 114.406L138.264 130.6L138.231 130.616L144.39 145.937C145.829 149.52 150.484 153.425 154.161 152.274L181.676 141.399C181.464 142.937 181.078 144.442 180.535 145.899C180.986 145.184 181.35 144.415 181.616 143.608C182.099 142.124 181.969 139.877 181.741 138.143C181.556 136.725 180.019 124.687 179.362 119.015C179.101 116.839 177.146 115.154 174.751 115.448C173.735 115.574 172.823 116.13 172.171 116.921L172.133 116.97C171.465 117.821 171.155 118.901 171.28 119.975L172.052 126.662C170.857 125.435 169.743 124.262 168.869 123.275C166.93 121.077 164.899 117.112 164.899 117.112L157.192 99.702C156.279 97.6458 154.025 96.6531 152.151 97.4931C151.239 97.9076 150.544 98.693 150.245 99.6529C149.881 100.667 149.903 101.78 150.305 102.778C149.392 100.722 147.263 98.8293 144.955 99.8656C144.043 100.28 143.347 101.066 143.043 102.025C142.75 102.909 143.076 104.643 143.445 105.614L143.532 105.805L151.831 124.529L143.532 105.789C143.505 105.723 143.478 105.658 143.451 105.592C142.489 103.673 140.317 102.762 138.503 103.574C137.59 103.989 136.895 104.774 136.591 105.734C136.265 106.743 136.325 107.84 136.765 108.81L145.064 127.551L145.015 127.578L137.862 111.385C137.46 110.501 136.721 109.819 135.809 109.487C134.902 109.154 133.897 109.198 133.022 109.607C132.126 109.999 131.42 110.73 131.051 111.636H131.056Z" fill="url(#paint16_linear_2910_1011)"/>
<path fill-rule="evenodd" clip-rule="evenodd" d="M150.793 152.274C150.848 152.302 150.908 152.34 150.962 152.378C151.005 152.4 151.049 152.422 151.087 152.449C152.412 153.289 153.297 154.658 153.84 156.332C154.302 157.832 154.546 159.387 154.568 160.952V162.915C154.916 163.052 155.285 163.177 155.671 163.297C158.745 164.263 162.97 164.852 167.636 164.83C172.6 164.803 177.064 164.094 180.155 162.986C180.671 162.801 181.181 162.594 181.676 162.354C181.676 161.481 181.708 160.728 181.724 160.39C181.768 159.387 181.817 158.034 181.849 156.43C181.958 150.164 182.349 137.674 180.22 130.463C179.758 128.903 178.585 129.934 177.933 128.707L150.799 152.274H150.793Z" fill="url(#paint17_linear_2910_1011)"/>
<path fill-rule="evenodd" clip-rule="evenodd" d="M386.429 140.461C386.092 140.613 385.093 140.804 384.712 140.793C375.669 140.521 380.644 125.576 383.327 133.114L399.561 125.904C401.875 124.878 405.112 125.74 405.731 128.303C406.046 129.612 405.503 131.02 403.841 132.438" fill="url(#paint18_linear_2910_1011)"/>
<path fill-rule="evenodd" clip-rule="evenodd" d="M386.895 148.751C386.559 148.904 385.559 149.095 385.179 149.084C376.136 148.811 381.111 133.867 383.794 141.404L400.028 134.194C402.342 133.169 405.579 134.03 406.198 136.594C406.513 137.903 405.97 139.31 404.308 140.728" fill="url(#paint19_linear_2910_1011)"/>
<path fill-rule="evenodd" clip-rule="evenodd" d="M383.838 133.436C383.501 133.589 382.502 133.779 382.122 133.768C373.078 133.496 378.054 118.551 380.737 126.089L396.971 118.879C399.284 117.853 402.521 118.715 403.14 121.279C403.456 122.587 402.891 123.847 401.223 125.265" fill="url(#paint20_linear_2910_1011)"/>
<path d="M429.053 52.6597C425.121 53.4505 422.655 57.3993 423.47 61.479L423.953 63.8897L410.407 75.5561C405.383 79.8867 397.161 83.7319 389.475 85.2754L389.421 85.2863C388.748 84.3864 387.84 83.6937 386.798 83.2901C385.755 82.8865 384.62 82.7829 383.517 82.9901L376.668 84.37C373.784 84.9482 371.818 87.5989 371.889 90.4569L359.994 92.8512C355.59 93.7403 352.651 98.2236 353.564 102.794L356.448 117.231C357.311 121.556 361.287 124.463 365.442 124.011L365.257 147.916C365.225 151.598 366.827 155.105 369.624 157.488C372.421 159.872 376.131 160.881 379.742 160.248C383.354 159.615 386.504 157.406 388.335 154.21C390.165 151.02 390.491 147.174 389.22 143.722L382.453 125.325C383.246 125.505 384.066 125.511 384.859 125.352L391.713 123.973C392.81 123.743 393.815 123.204 394.624 122.429C395.433 121.649 396.004 120.662 396.281 119.571L396.335 119.56C404.02 118.011 413.08 118.338 419.38 120.389L436.352 125.876L436.836 128.287C437.651 132.367 441.442 135.05 445.374 134.259C449.306 133.468 451.772 129.519 450.957 125.44L437.618 58.6374C436.803 54.5577 433.012 51.8743 429.08 52.6651L429.053 52.6597Z" fill="url(#paint21_linear_2910_1011)"/>
<path d="M298.595 82.4941C298.595 65.7662 284.908 46.0386 268.25 46.0386C251.592 46.0386 242.061 62.4992 242.061 79.2325C242.061 95.9658 250.55 110.43 268.429 112.786C284.946 114.963 298.589 99.2274 298.589 82.4995L298.595 82.4941Z" fill="url(#paint22_linear_2910_1011)"/>
<path d="M273.632 88.7446C275.196 89.41 277.787 88.6246 277.787 86.5084C277.787 84.1522 274.659 84.2722 274.659 84.2722C273.817 83.1813 273.333 78.1035 273.333 78.1035" stroke="#053256" stroke-width="2" stroke-miterlimit="10" stroke-linecap="round"/>
<path d="M257.138 72.5838C257.138 72.5838 261.054 69.8022 265.056 70.7076" stroke="#053256" stroke-width="2" stroke-miterlimit="10" stroke-linecap="round"/>
<path d="M283.143 70.1074C283.143 70.1074 287.868 70.4347 289.948 72.5836" stroke="#053256" stroke-width="2" stroke-miterlimit="10" stroke-linecap="round"/>
<path d="M263.036 80.4107C264.149 80.4107 265.051 79.5048 265.051 78.3873C265.051 77.2697 264.149 76.3638 263.036 76.3638C261.923 76.3638 261.021 77.2697 261.021 78.3873C261.021 79.5048 261.923 80.4107 263.036 80.4107Z" fill="#053256"/>
<path d="M285.739 80.858C286.851 80.858 287.754 79.9521 287.754 78.8345C287.754 77.717 286.851 76.811 285.739 76.811C284.626 76.811 283.724 77.717 283.724 78.8345C283.724 79.9521 284.626 80.858 285.739 80.858Z" fill="#053256"/>
<path opacity="0.2" d="M254.242 91.3786C256.618 91.3786 258.544 89.4446 258.544 87.0589C258.544 84.6732 256.618 82.7393 254.242 82.7393C251.867 82.7393 249.941 84.6732 249.941 87.0589C249.941 89.4446 251.867 91.3786 254.242 91.3786Z" fill="url(#paint23_linear_2910_1011)"/>
<path opacity="0.2" d="M288.84 92.1804C291.215 92.1804 293.141 90.2464 293.141 87.8607C293.141 85.475 291.215 83.541 288.84 83.541C286.464 83.541 284.538 85.475 284.538 87.8607C284.538 90.2464 286.464 92.1804 288.84 92.1804Z" fill="url(#paint24_linear_2910_1011)"/>
<path d="M259.424 95.606C259.424 95.606 270.156 107.791 284.05 97.7549" stroke="#053256" stroke-width="2" stroke-miterlimit="10" stroke-linecap="round"/>
<path fill-rule="evenodd" clip-rule="evenodd" d="M268.25 46.0383C268.25 46.0383 258.229 37.4862 238.704 64.3424C219.179 91.1932 267.837 61.9644 273.616 47.62C273.616 47.62 274.594 45.8201 268.255 46.0438L268.25 46.0383Z" fill="url(#paint25_linear_2910_1011)"/>
<path fill-rule="evenodd" clip-rule="evenodd" d="M271.481 48.7654C271.481 48.7654 273.404 59.0792 295.45 68.4167C317.49 77.7487 287.754 42.155 271.699 44.7184C271.699 44.7184 270.281 44.3257 271.481 48.7654Z" fill="url(#paint26_linear_2910_1011)"/>
<path fill-rule="evenodd" clip-rule="evenodd" d="M151.891 152.82C151.945 152.847 152.005 152.885 152.059 152.923C152.102 152.945 152.146 152.967 152.184 152.994C153.509 153.834 154.394 155.203 154.938 156.878C155.399 158.378 155.644 159.932 155.665 161.497V163.461C156.013 163.597 156.382 163.723 156.768 163.843C159.842 164.808 164.068 165.397 168.733 165.375C173.697 165.348 178.162 164.639 181.252 163.532C181.768 163.346 182.278 163.139 182.773 162.899C182.773 162.026 182.805 161.274 182.822 160.936C182.865 159.932 182.914 158.579 182.947 156.976C183.055 150.709 183.446 138.219 181.317 131.009C180.856 129.449 179.682 130.48 179.031 129.252L151.896 152.82H151.891Z" fill="url(#paint27_linear_2910_1011)"/>
<path fill-rule="evenodd" clip-rule="evenodd" d="M360.142 125.478C360.538 125.478 363.357 125.478 363.753 125.478L370.211 118.944C370.988 118.191 371.433 117.16 371.449 116.075V116.01C371.449 114.368 370.477 112.884 368.973 112.246C367.468 111.608 365.725 111.93 364.557 113.075C361.95 115.606 357.442 119.915 354.243 122.953C357.985 122.833 356.399 125.511 360.147 125.478H360.142Z" fill="url(#paint28_linear_2910_1011)"/>
<path d="M429.495 51.6025L428.306 51.858C424.786 52.6138 422.542 56.0921 423.295 59.6268L438.151 129.395C438.904 132.93 442.368 135.183 445.888 134.427L447.077 134.171C450.597 133.416 452.84 129.937 452.088 126.403L437.232 56.6342C436.479 53.0994 433.015 50.8466 429.495 51.6025Z" fill="url(#paint29_linear_2910_1011)"/>
<path d="M381.85 81.3347L374.72 83.2078C371.238 84.1227 369.153 87.6991 370.064 91.1962L378.019 121.732C378.93 125.229 382.491 127.322 385.973 126.407L393.104 124.534C396.586 123.619 398.67 120.043 397.76 116.546L389.805 86.0102C388.894 82.5132 385.332 80.4199 381.85 81.3347Z" fill="url(#paint30_linear_2910_1011)"/>
<path d="M441.822 204.481C431.155 204.71 421.004 209.144 413.568 216.835C406.133 224.52 402.011 234.839 402.098 245.556C402.049 252.739 403.895 259.808 407.447 266.048C410.999 272.287 416.126 277.468 422.313 281.079C428.499 284.684 435.527 286.582 442.685 286.582C449.844 286.582 456.866 284.684 463.058 281.079C469.25 277.474 474.377 272.287 477.923 266.048C481.475 259.808 483.317 252.739 483.273 245.556C483.333 238.27 481.443 231.097 477.804 224.792C474.165 218.487 468.907 213.273 462.58 209.701C456.253 206.128 449.089 204.328 441.833 204.481H441.822ZM465.29 227.476C466.387 227.427 467.457 227.825 468.256 228.583C469.054 229.341 469.516 230.388 469.532 231.49C469.548 232.592 469.119 233.655 468.343 234.435L438.916 263.986C437.9 265.006 436.526 265.578 435.087 265.578C433.648 265.578 432.274 265.006 431.258 263.986L416.925 249.592C415.904 248.562 415.507 247.062 415.882 245.66C416.257 244.258 417.348 243.162 418.75 242.78C420.146 242.404 421.639 242.802 422.666 243.827L435.087 256.301L462.596 228.676C463.313 227.956 464.275 227.53 465.29 227.487V227.476Z" fill="#29CC34"/>
<defs>
<linearGradient id="paint0_linear_2910_1011" x1="95.1667" y1="189.395" x2="242.606" y2="443.687" gradientUnits="userSpaceOnUse">
<stop stop-color="#FFE4D7"/>
<stop offset="0.36" stop-color="#FFD8C0"/>
<stop offset="0.72" stop-color="#FFCFAF"/>
<stop offset="1" stop-color="#FFCDAA"/>
</linearGradient>
<linearGradient id="paint1_linear_2910_1011" x1="175.538" y1="108.232" x2="307.773" y2="108.232" gradientUnits="userSpaceOnUse">
<stop offset="0.02" stop-color="#F95900"/>
<stop offset="0.32" stop-color="#FB6A0A"/>
<stop offset="0.7" stop-color="#FE7A13"/>
<stop offset="1" stop-color="#FF8017"/>
</linearGradient>
<linearGradient id="paint2_linear_2910_1011" x1="266.897" y1="240.375" x2="266.897" y2="124.344" gradientUnits="userSpaceOnUse">
<stop offset="0.06" stop-color="#8E5DF8"/>
<stop offset="0.3" stop-color="#9163F7"/>
<stop offset="0.62" stop-color="#9B74F7"/>
<stop offset="0.98" stop-color="#AB90F7"/>
<stop offset="1" stop-color="#AD92F7"/>
</linearGradient>
<linearGradient id="paint3_linear_2910_1011" x1="289.089" y1="458.857" x2="289.089" y2="235.041" gradientUnits="userSpaceOnUse">
<stop stop-color="#171C3A"/>
<stop offset="0.37" stop-color="#141F3E"/>
<stop offset="0.78" stop-color="#0B294B"/>
<stop offset="1" stop-color="#053256"/>
</linearGradient>
<linearGradient id="paint4_linear_2910_1011" x1="293.233" y1="406.463" x2="293.233" y2="240.488" gradientUnits="userSpaceOnUse">
<stop offset="0.03" stop-color="#2F5472"/>
<stop offset="0.34" stop-color="#254C6B"/>
<stop offset="0.85" stop-color="#0D385B"/>
<stop offset="1" stop-color="#053256"/>
</linearGradient>
<linearGradient id="paint5_linear_2910_1011" x1="226.994" y1="423.094" x2="243.049" y2="423.094" gradientUnits="userSpaceOnUse">
<stop stop-color="#171C3A"/>
<stop offset="0.37" stop-color="#141F3E"/>
<stop offset="0.78" stop-color="#0B294B"/>
<stop offset="1" stop-color="#053256"/>
</linearGradient>
<linearGradient id="paint6_linear_2910_1011" x1="244.689" y1="454.199" x2="244.689" y2="381.267" gradientUnits="userSpaceOnUse">
<stop offset="0.48" stop-color="#97AFBF"/>
<stop offset="0.6" stop-color="#9CB2C1"/>
<stop offset="0.75" stop-color="#AABDCA"/>
<stop offset="0.91" stop-color="#C3CFD8"/>
<stop offset="1" stop-color="#D5DDE3"/>
</linearGradient>
<linearGradient id="paint7_linear_2910_1011" x1="263.492" y1="375.987" x2="243.298" y2="399.721" gradientUnits="userSpaceOnUse">
<stop offset="0.03" stop-color="#2F5472"/>
<stop offset="0.42" stop-color="#51748E"/>
<stop offset="0.78" stop-color="#6A8CA2"/>
<stop offset="1" stop-color="#7495AA"/>
</linearGradient>
<linearGradient id="paint8_linear_2910_1011" x1="253.091" y1="482.032" x2="269.141" y2="482.032" gradientUnits="userSpaceOnUse">
<stop stop-color="#171C3A"/>
<stop offset="0.37" stop-color="#141F3E"/>
<stop offset="0.78" stop-color="#0B294B"/>
<stop offset="1" stop-color="#053256"/>
</linearGradient>
<linearGradient id="paint9_linear_2910_1011" x1="270.781" y1="513.148" x2="270.781" y2="440.21" gradientUnits="userSpaceOnUse">
<stop offset="0.48" stop-color="#97AFBF"/>
<stop offset="0.6" stop-color="#9CB2C1"/>
<stop offset="0.75" stop-color="#AABDCA"/>
<stop offset="0.91" stop-color="#C3CFD8"/>
<stop offset="1" stop-color="#D5DDE3"/>
</linearGradient>
<linearGradient id="paint10_linear_2910_1011" x1="284.028" y1="427.223" x2="277.676" y2="463.157" gradientUnits="userSpaceOnUse">
<stop offset="0.03" stop-color="#2F5472"/>
<stop offset="0.42" stop-color="#51748E"/>
<stop offset="0.78" stop-color="#6A8CA2"/>
<stop offset="1" stop-color="#7495AA"/>
</linearGradient>
<linearGradient id="paint11_linear_2910_1011" x1="268.874" y1="101.584" x2="268.874" y2="139.059" gradientUnits="userSpaceOnUse">
<stop offset="0.06" stop-color="#8E5DF8"/>
<stop offset="0.32" stop-color="#986DF7"/>
<stop offset="0.73" stop-color="#A583F7"/>
<stop offset="1" stop-color="#AA8CF7"/>
</linearGradient>
<linearGradient id="paint12_linear_2910_1011" x1="365.909" y1="233.541" x2="302.771" y2="124.645" gradientUnits="userSpaceOnUse">
<stop offset="0.06" stop-color="#8E5DF8"/>
<stop offset="0.49" stop-color="#8F5EF8"/>
<stop offset="0.66" stop-color="#9466F8"/>
<stop offset="0.79" stop-color="#9C72F8"/>
<stop offset="0.9" stop-color="#A883F9"/>
<stop offset="0.99" stop-color="#B89AFA"/>
<stop offset="1" stop-color="#BB9EFB"/>
</linearGradient>
<linearGradient id="paint13_linear_2910_1011" x1="345.146" y1="131.898" x2="405.199" y2="131.898" gradientUnits="userSpaceOnUse">
<stop offset="0.03" stop-color="#FFCDAA"/>
<stop offset="0.31" stop-color="#FFD0B0"/>
<stop offset="0.68" stop-color="#FFDAC1"/>
<stop offset="1" stop-color="#FFE6D5"/>
</linearGradient>
<linearGradient id="paint14_linear_2910_1011" x1="360.435" y1="174.336" x2="360.435" y2="138.208" gradientUnits="userSpaceOnUse">
<stop offset="0.03" stop-color="#E2A17D"/>
<stop offset="0.21" stop-color="#EDB28F"/>
<stop offset="0.44" stop-color="#F7C3A1"/>
<stop offset="0.7" stop-color="#FDCCAB"/>
<stop offset="1" stop-color="#FFD0AF"/>
</linearGradient>
<linearGradient id="paint15_linear_2910_1011" x1="221.047" y1="231.065" x2="171.944" y2="146.372" gradientUnits="userSpaceOnUse">
<stop offset="0.06" stop-color="#8E5DF8"/>
<stop offset="0.27" stop-color="#9263F8"/>
<stop offset="0.55" stop-color="#9E74F9"/>
<stop offset="0.87" stop-color="#B190FA"/>
<stop offset="1" stop-color="#BB9EFB"/>
</linearGradient>
<linearGradient id="paint16_linear_2910_1011" x1="130.79" y1="124.84" x2="181.942" y2="124.84" gradientUnits="userSpaceOnUse">
<stop offset="0.03" stop-color="#FFCDAA"/>
<stop offset="0.31" stop-color="#FFD0B0"/>
<stop offset="0.68" stop-color="#FFDAC1"/>
<stop offset="1" stop-color="#FFE6D5"/>
</linearGradient>
<linearGradient id="paint17_linear_2910_1011" x1="160.901" y1="166.586" x2="181.654" y2="130.795" gradientUnits="userSpaceOnUse">
<stop stop-color="#FFCDAA"/>
<stop offset="0.29" stop-color="#FFD0B0"/>
<stop offset="0.67" stop-color="#FFDAC1"/>
<stop offset="1" stop-color="#FFE6D5"/>
</linearGradient>
<linearGradient id="paint18_linear_2910_1011" x1="393.996" y1="119.672" x2="387.773" y2="108.87" gradientUnits="userSpaceOnUse">
<stop stop-color="#CC8352" stop-opacity="0.7"/>
<stop offset="0.04" stop-color="#D48F60" stop-opacity="0.58"/>
<stop offset="0.1" stop-color="#DF9F74" stop-opacity="0.43"/>
<stop offset="0.16" stop-color="#E9AE85" stop-opacity="0.29"/>
<stop offset="0.24" stop-color="#F1B992" stop-opacity="0.18"/>
<stop offset="0.33" stop-color="#F7C29D" stop-opacity="0.1"/>
<stop offset="0.44" stop-color="#FBC8A4" stop-opacity="0.04"/>
<stop offset="0.59" stop-color="#FECCA8" stop-opacity="0"/>
<stop offset="1" stop-color="#FFCDAA" stop-opacity="0"/>
</linearGradient>
<linearGradient id="paint19_linear_2910_1011" x1="394.466" y1="127.995" x2="388.244" y2="117.193" gradientUnits="userSpaceOnUse">
<stop stop-color="#CC8352" stop-opacity="0.7"/>
<stop offset="0.04" stop-color="#D48F60" stop-opacity="0.58"/>
<stop offset="0.1" stop-color="#DF9F74" stop-opacity="0.43"/>
<stop offset="0.16" stop-color="#E9AE85" stop-opacity="0.29"/>
<stop offset="0.24" stop-color="#F1B992" stop-opacity="0.18"/>
<stop offset="0.33" stop-color="#F7C29D" stop-opacity="0.1"/>
<stop offset="0.44" stop-color="#FBC8A4" stop-opacity="0.04"/>
<stop offset="0.59" stop-color="#FECCA8" stop-opacity="0"/>
<stop offset="1" stop-color="#FFCDAA" stop-opacity="0"/>
</linearGradient>
<linearGradient id="paint20_linear_2910_1011" x1="391.346" y1="112.5" x2="385.196" y2="101.821" gradientUnits="userSpaceOnUse">
<stop stop-color="#CC8352" stop-opacity="0.7"/>
<stop offset="0.04" stop-color="#D48F60" stop-opacity="0.58"/>
<stop offset="0.1" stop-color="#DF9F74" stop-opacity="0.43"/>
<stop offset="0.16" stop-color="#E9AE85" stop-opacity="0.29"/>
<stop offset="0.24" stop-color="#F1B992" stop-opacity="0.18"/>
<stop offset="0.33" stop-color="#F7C29D" stop-opacity="0.1"/>
<stop offset="0.44" stop-color="#FBC8A4" stop-opacity="0.04"/>
<stop offset="0.59" stop-color="#FECCA8" stop-opacity="0"/>
<stop offset="1" stop-color="#FFCDAA" stop-opacity="0"/>
</linearGradient>
<linearGradient id="paint21_linear_2910_1011" x1="353.39" y1="106.476" x2="451.087" y2="106.476" gradientUnits="userSpaceOnUse">
<stop offset="0.03" stop-color="#2F5472"/>
<stop offset="1" stop-color="#053256"/>
</linearGradient>
<linearGradient id="paint22_linear_2910_1011" x1="254.259" y1="107.447" x2="285.938" y2="52.8134" gradientUnits="userSpaceOnUse">
<stop offset="0.03" stop-color="#FFCDAA"/>
<stop offset="0.31" stop-color="#FFD0B0"/>
<stop offset="0.68" stop-color="#FFDAC1"/>
<stop offset="1" stop-color="#FFE6D5"/>
</linearGradient>
<linearGradient id="paint23_linear_2910_1011" x1="252.086" y1="90.8059" x2="256.42" y2="83.3332" gradientUnits="userSpaceOnUse">
<stop offset="0.03" stop-color="#FF8294"/>
<stop offset="1" stop-color="#FF435E"/>
</linearGradient>
<linearGradient id="paint24_linear_2910_1011" x1="286.689" y1="91.6077" x2="291.018" y2="84.1349" gradientUnits="userSpaceOnUse">
<stop offset="0.03" stop-color="#FF8294"/>
<stop offset="1" stop-color="#FF435E"/>
</linearGradient>
<linearGradient id="paint25_linear_2910_1011" x1="234.104" y1="60.0118" x2="273.67" y2="60.0118" gradientUnits="userSpaceOnUse">
<stop offset="0.02" stop-color="#F95900"/>
<stop offset="0.32" stop-color="#FB6A0A"/>
<stop offset="0.7" stop-color="#FE7A13"/>
<stop offset="1" stop-color="#FF8017"/>
</linearGradient>
<linearGradient id="paint26_linear_2910_1011" x1="291.174" y1="72.4203" x2="283.912" y2="41.7561" gradientUnits="userSpaceOnUse">
<stop offset="0.02" stop-color="#F95900"/>
<stop offset="0.32" stop-color="#FB6A0A"/>
<stop offset="0.7" stop-color="#FE7A13"/>
<stop offset="1" stop-color="#FF8017"/>
</linearGradient>
<linearGradient id="paint27_linear_2910_1011" x1="167.467" y1="165.375" x2="167.467" y2="129.247" gradientUnits="userSpaceOnUse">
<stop stop-color="#DD996B"/>
<stop offset="0.03" stop-color="#E09F74" stop-opacity="0.91"/>
<stop offset="0.12" stop-color="#E7B08A" stop-opacity="0.7"/>
<stop offset="0.22" stop-color="#EDBE9E" stop-opacity="0.51"/>
<stop offset="0.32" stop-color="#F2CAAF" stop-opacity="0.35"/>
<stop offset="0.42" stop-color="#F7D4BD" stop-opacity="0.22"/>
<stop offset="0.54" stop-color="#FADCC7" stop-opacity="0.12"/>
<stop offset="0.66" stop-color="#FDE1CF" stop-opacity="0.05"/>
<stop offset="0.8" stop-color="#FEE5D3" stop-opacity="0.01"/>
<stop offset="1" stop-color="#FFE6D5" stop-opacity="0"/>
</linearGradient>
<linearGradient id="paint28_linear_2910_1011" x1="346.688" y1="118.698" x2="406.742" y2="118.698" gradientUnits="userSpaceOnUse">
<stop offset="0.03" stop-color="#FFCDAA"/>
<stop offset="0.31" stop-color="#FFD0B0"/>
<stop offset="0.68" stop-color="#FFDAC1"/>
<stop offset="1" stop-color="#FFE6D5"/>
</linearGradient>
<linearGradient id="paint29_linear_2910_1011" x1="430.724" y1="94.5137" x2="444.665" y2="91.545" gradientUnits="userSpaceOnUse">
<stop stop-color="#171C3A"/>
<stop offset="0.37" stop-color="#141F3E"/>
<stop offset="0.78" stop-color="#0B294B"/>
<stop offset="1" stop-color="#053256"/>
</linearGradient>
<linearGradient id="paint30_linear_2910_1011" x1="379.717" y1="123.914" x2="369.858" y2="80.0223" gradientUnits="userSpaceOnUse">
<stop offset="0.03" stop-color="#2F5472"/>
<stop offset="0.42" stop-color="#51748E"/>
<stop offset="0.78" stop-color="#6A8CA2"/>
<stop offset="1" stop-color="#7495AA"/>
</linearGradient>
</defs>
</svg>
